<mxfile host="drawio-plugin" modified="2021-09-01T13:06:18.620Z" agent="5.0 (X11; Linux x86_64) AppleWebKit/537.36 (KHTML, like Gecko) Chrome/89.0.4389.114 Safari/537.36" version="14.7.4" etag="7EQpVw1WzkIr8JqHkWzK" type="embed"><diagram id="8qxMJgWtfBoBHfF0E7y7" name="Page-1"><mxGraphModel dx="1127" dy="636" grid="1" gridSize="10" guides="1" tooltips="1" connect="1" arrows="1" fold="1" page="1" pageScale="1" pageWidth="850" pageHeight="1100" math="0" shadow="0"><root><mxCell id="0"/><mxCell id="1" parent="0"/><mxCell id="2" value="" style="whiteSpace=wrap;html=1;aspect=fixed;" vertex="1" parent="1"><mxGeometry x="730" y="10" width="170" height="170" as="geometry"/></mxCell></root></mxGraphModel></diagram></mxfile>